<?xml version="1.0" standalone="no"?>
<!DOCTYPE svg PUBLIC "-//W3C//DTD SVG 1.1//EN" "http://www.w3.org/Graphics/SVG/1.1/DTD/svg11.dtd">
<svg t="1580485077898" class="icon" viewBox="0 0 1024 1024" version="1.1" xmlns="http://www.w3.org/2000/svg" p-id="16166" xmlns:xlink="http://www.w3.org/1999/xlink" width="100%" height="100%">
    <defs>
        <style type="text/css">
        </style>
    </defs>
    <path d="M353.868 545.334h133.484c13.673 37.41 50.116 64.166 92.933 64.166h312.037c54.511 0 98.703-43.374 98.703-96.891 0-53.502-44.192-96.895-98.703-96.895H580.285c-42.678 0-79.026 26.593-92.802 63.81H353.868V224.578h133.518c13.7 36.391 50.118 62.422 92.899 62.422h312.037c54.511 0 98.703-42.27 98.703-94.388 0-52.133-44.192-94.385-98.703-94.385H580.285c-42.043 0-77.939 25.131-92.168 60.54H320.965c-8.898 0-16.965 3.538-22.888 9.275-6.175 4.968-10.018 11.299-10.018 16.453v295.028h-96.145c-13.553-38.334-50.106-65.81-93.08-65.81-54.518 0-98.71 44.209-98.71 98.717 0 54.524 44.193 98.713 98.71 98.713 42.978 0 79.533-27.468 93.083-65.81h96.142v278.415c0 1.545 0.056 3.047 0.157 4.511a33.21 33.21 0 0 0-0.157 3.201c0 17.558 13.757 31.905 31.085 32.851 0.603 0.033 1.21 0.053 1.822 0.053h166.372c13.661 37.226 50.115 63.855 92.948 63.855h312.037c54.511 0 98.703-43.135 98.703-96.359 0-53.208-44.192-96.359-98.703-96.359H580.285c-42.523 0-78.762 26.253-92.651 63.054H353.868V545.334z" p-id="16167" fill="#0062cc"></path>
</svg>