<?xml version="1.0" standalone="no"?>
<!DOCTYPE svg PUBLIC "-//W3C//DTD SVG 1.1//EN" "http://www.w3.org/Graphics/SVG/1.1/DTD/svg11.dtd">
<svg class="icon" width="100%" height="100%" viewBox="0 0 1024 1024" version="1.1" xmlns="http://www.w3.org/2000/svg">
    <path d="M582.4 1020H441.6c-8 0-14.4-5.6-16-12.8l-12-65.6c-48-11.2-93.6-29.6-135.2-56l-55.2 37.6c-6.4 4-15.2 3.2-20-1.6l-100-100c-5.6-5.6-6.4-13.6-1.6-20l37.6-55.2c-26.4-41.6-44.8-87.2-56-135.2l-65.6-12c-7.2-1.6-12.8-8-12.8-16V441.6c0-8 5.6-14.4 12.8-16l65.6-12c11.2-48 29.6-93.6 56-135.2l-37.6-55.2c-4-6.4-3.2-15.2 1.6-20l100-100c5.6-5.6 13.6-6.4 20-1.6l55.2 37.6c41.6-26.4 87.2-44.8 135.2-56l12-65.6c1.6-7.2 8-12.8 16-12.8h140.8c8 0 14.4 5.6 16 12.8l12 65.6c48 11.2 93.6 29.6 135.2 56l55.2-37.6c6.4-4 15.2-3.2 20 1.6l100 100c5.6 5.6 6.4 13.6 1.6 20l-37.6 55.2c26.4 41.6 44.8 87.2 56 135.2l65.6 12c7.2 1.6 12.8 8 12.8 16v140.8c0 8-5.6 14.4-12.8 16l-65.6 12c-11.2 48-29.6 93.6-56 135.2l37.6 55.2c4 6.4 3.2 15.2-1.6 20l-100 100c-5.6 5.6-13.6 6.4-20 1.6l-55.2-37.6c-41.6 26.4-87.2 44.8-135.2 56l-12 65.6c-1.6 8-8 13.6-16 13.6z m-128-32h114.4l12-63.2c1.6-6.4 6.4-11.2 12.8-12.8 51.2-10.4 100-30.4 144-59.2 5.6-3.2 12.8-3.2 17.6 0l52.8 36 80.8-80.8-36-52.8c-4-5.6-4-12.8 0-17.6 28.8-44 48.8-92 59.2-144 1.6-6.4 6.4-11.2 12.8-12.8l63.2-12V454.4l-63.2-12c-6.4-1.6-11.2-6.4-12.8-12.8-10.4-51.2-30.4-100-59.2-144-4-5.6-3.2-12.8 0-17.6l36-52.8-80.8-80-52.8 36c-5.6 4-12.8 4-17.6 0-44-28.8-92-48.8-144-59.2-6.4-1.6-11.2-6.4-12.8-12.8l-12-63.2H454.4l-12 63.2c-1.6 6.4-6.4 11.2-12.8 12.8-51.2 10.4-100 30.4-144 59.2-5.6 3.2-12.8 3.2-17.6 0L216 135.2 135.2 216l36 52.8c4 5.6 4 12.8 0 17.6-28.8 44-48.8 92-59.2 144-1.6 6.4-6.4 11.2-12.8 12.8l-63.2 12v114.4l63.2 12c6.4 1.6 11.2 6.4 12.8 12.8 10.4 51.2 30.4 100 59.2 144 3.2 5.6 3.2 12.8 0 17.6l-36 52.8 80.8 80 52.8-36c5.6-4 12.8-4 17.6 0 44 28.8 92 48.8 144 59.2 6.4 1.6 11.2 6.4 12.8 12.8l11.2 63.2z"  fill="#0062cc"/>
    <path d="M512 808c-163.2 0-296-132.8-296-296s132.8-296 296-296 296 132.8 296 296-132.8 296-296 296z m0-576c-154.4 0-280 125.6-280 280s125.6 280 280 280 280-125.6 280-280-125.6-280-280-280z"  fill="#0062cc"/>
    <path d="M512 808c-78.4 0-139.2-130.4-139.2-296 0-166.4 61.6-296 139.2-296 78.4 0 139.2 130.4 139.2 296 0 166.4-60.8 296-139.2 296z m0-576c-67.2 0-123.2 128-123.2 280S445.6 792 512 792c67.2 0 123.2-128 123.2-280s-56-280-123.2-280z"  fill="#0062cc"/>
    <path d="M512 808c-4.8 0-8-3.2-8-8V224c0-4.8 3.2-8 8-8s8 3.2 8 8v576c0 4-3.2 8-8 8z"  fill="#0062cc"/>
    <path d="M769.6 650.4H254.4c-4.8 0-8-3.2-8-8s3.2-8 8-8h515.2c4.8 0 8 3.2 8 8s-3.2 8-8 8zM800 520H224c-4.8 0-8-3.2-8-8s3.2-8 8-8h576c4.8 0 8 3.2 8 8s-4 8-8 8zM769.6 389.6H254.4c-4.8 0-8-3.2-8-8s3.2-8 8-8h515.2c4.8 0 8 3.2 8 8 0 4-3.2 8-8 8z"  fill="#0062cc"/>
</svg>