<?xml version="1.0" standalone="no"?>
<!DOCTYPE svg PUBLIC "-//W3C//DTD SVG 1.1//EN" "http://www.w3.org/Graphics/SVG/1.1/DTD/svg11.dtd">
<svg class="icon" width="100%" height="100%" viewBox="0 0 1024 1024" version="1.1" xmlns="http://www.w3.org/2000/svg">
    <path fill="#0062cc" d="M 924.983 735.786 c 0 116.786 -95.7293 211.493 -213.775 211.493 c -118.064 0 -213.769 -94.707 -213.769 -211.493 c 0 -110.329 81.0203 -200.79 189.953 -210.514 l 0 -48.2161 l -32.8287 0 l 0 -36.3038 L 757.507 440.752 l 0 36.3038 l -31.3367 0 l 0 48.2161 c 41.0121 3.64195 82.985 18.8462 114.034 42.15 l 42.5695 -42.1919 l 41.2208 40.7849 l -42.5675 42.1919 C 908.623 643.692 924.983 687.797 924.983 735.786 Z M 711.208 562.749 c -96.4476 0 -174.903 77.6137 -174.903 173.037 c 0 95.4253 78.4569 173.037 174.903 173.037 c 96.4681 0 174.903 -77.6116 174.903 -173.037 C 886.112 640.362 807.676 562.749 711.208 562.749 Z M 726.17 768.907 l 0 23.0848 l -34.3974 0 l 0 -23.0848 c -11.5736 -6.68628 -19.4326 -18.9046 -19.4326 -33.1214 c 0 -14.1933 9.3479 -26.475 20.9246 -33.1193 l 0 -85.1902 l 32.9054 0 l 0 85.1902 c 11.5951 6.64433 23.9055 18.926 23.9055 33.1193 C 750.076 750.003 737.765 762.221 726.17 768.907 Z M 238.565 616.003 l 223.325 0 c -8.12505 16.5223 -14.4685 34.0464 -18.968 52.2879 L 238.565 668.291 c -14.5954 0 -26.4248 -11.7036 -26.4248 -26.1424 C 212.14 627.708 223.97 616.003 238.565 616.003 Z M 482.612 581.146 L 238.565 581.146 c -14.5954 0 -26.4248 -11.7036 -26.4248 -26.1393 c 0 -14.4419 11.8304 -26.1455 26.4248 -26.1455 l 292.5 0 C 512.639 544.042 496.32 561.618 482.612 581.146 Z M 238.565 406.862 c -14.5954 0 -26.4248 -11.7036 -26.4248 -26.1404 c 0 -14.4389 11.8304 -26.1424 26.4248 -26.1424 l 352.321 0 c 14.5954 0 26.4248 11.7036 26.4248 26.1424 c 0 14.4368 -11.8304 26.1404 -26.4248 26.1404 L 238.565 406.862 Z M 238.565 494.007 c -14.5954 0 -26.4248 -11.7087 -26.4248 -26.1475 c 0 -14.4368 11.8304 -26.1373 26.4248 -26.1373 l 352.321 0 c 3.12415 0 6.0283 0.771573 8.81169 1.75599 l 0 44.2733 c -4.70516 1.92279 -9.27934 4.0748 -13.8453 6.25547 L 238.565 494.007 Z M 670.162 302.293 c 0 -48.123 -39.4382 -87.1417 -88.079 -87.1417 l -0.890276 0 c 0.417509 2.87037 0.890276 5.73052 0.890276 8.71448 c 0 33.6944 -27.6078 61.0013 -61.6593 61.0013 L 309.028 284.867 c -34.0536 0 -61.6593 -27.3069 -61.6593 -61.0013 c 0 -2.98396 0.472767 -5.8441 0.892323 -8.71448 l -0.892323 0 c -48.6439 0 -88.079 39.0187 -88.079 87.1417 l 0 505.424 c 0 48.1261 39.4352 87.1386 88.079 87.1386 l 246.244 0 c 16.2184 20.0343 35.2867 37.674 56.682 52.2848 L 212.14 947.141 c -48.649 0 -105.695 -39.0156 -105.695 -87.1417 L 106.444 267.439 c 0 -48.1281 57.0462 -87.1468 105.695 -87.1468 l 53.8269 0 c 11.1172 -10.7529 26.2877 -17.4259 43.0607 -17.4259 l 7.60726 0 c 5.03262 -48.8629 46.2667 -87.1417 96.989 -87.1417 c 50.7273 0 91.9553 38.2788 96.989 87.1417 l 9.81044 0 c 16.773 0 31.9435 6.67298 43.0638 17.4259 l 53.8249 0 c 48.6459 0 105.697 39.0187 105.697 87.1468 L 723.009 424.297 l -52.8476 0 L 670.161 302.293 Z M 413.624 123.24 c -27.5924 0 -49.966 22.131 -49.966 49.4329 c 0 27.2987 22.3746 49.4308 49.966 49.4308 c 27.5945 0 49.966 -22.131 49.966 -49.4308 C 463.591 145.372 441.22 123.24 413.624 123.24 Z" />
</svg>