<?xml version="1.0" standalone="no"?>
<!DOCTYPE svg PUBLIC "-//W3C//DTD SVG 1.1//EN" "http://www.w3.org/Graphics/SVG/1.1/DTD/svg11.dtd">
<svg class="icon" width="100%" height="100%" viewBox="0 0 1024 1024" version="1.1" xmlns="http://www.w3.org/2000/svg">
    <path d="M789.942857 960.609524h-585.142857c-53.638095 0-97.52381-43.885714-97.52381-97.52381V212.114286c0-53.638095 43.885714-97.52381 97.52381-97.52381h455.92381c17.066667 0 31.695238 14.628571 31.695238 31.695238 0 17.066667-14.628571 31.695238-31.695238 31.695238H204.8c-19.504762 0-34.133333 14.628571-34.133333 31.695238v650.971429c0 17.066667 14.628571 31.695238 31.695238 31.695238h587.580952c17.066667 0 31.695238-14.628571 31.695238-31.695238V341.333333c0-17.066667 14.628571-31.695238 31.695238-31.695238 17.066667 0 31.695238 14.628571 31.695238 31.695238v521.752381c2.438095 53.638095-41.447619 97.52381-95.085714 97.52381z" fill="#0062cc"/>
    <path d="M599.771429 438.857143c-7.314286 0-17.066667-2.438095-21.942858-9.752381-12.190476-12.190476-12.190476-34.133333 0-46.32381L899.657143 58.514286c12.190476-12.190476 34.133333-12.190476 46.323809 0s12.190476 34.133333 0 46.323809L621.714286 429.104762c-4.87619 7.314286-14.628571 9.752381-21.942857 9.752381zM465.67619 438.857143h-195.047619c-17.066667 0-31.695238-14.628571-31.695238-31.695238 0-17.066667 14.628571-31.695238 31.695238-31.695238h195.047619c17.066667 0 31.695238 14.628571 31.695239 31.695238 0 17.066667-14.628571 31.695238-31.695239 31.695238zM660.72381 633.904762H268.190476c-17.066667 0-31.695238-14.628571-31.695238-31.695238 0-17.066667 14.628571-31.695238 31.695238-31.695238h390.095238c17.066667 0 31.695238 14.628571 31.695238 31.695238 2.438095 17.066667-12.190476 31.695238-29.257142 31.695238z"  fill="#0062cc"/>
</svg>