<?xml version="1.0" standalone="no"?><!DOCTYPE svg PUBLIC "-//W3C//DTD SVG 1.1//EN" "http://www.w3.org/Graphics/SVG/1.1/DTD/svg11.dtd"><svg t="1580485386414" class="icon" viewBox="0 0 1047 1024" version="1.1" xmlns="http://www.w3.org/2000/svg" p-id="27713" xmlns:xlink="http://www.w3.org/1999/xlink" width="204.4921875" height="200"><defs><style type="text/css"></style></defs><path d="M872.111319 740.924312 654.784616 523.59469l176.386149-176.400748c57.278525 13.294037 119.863862-1.956294 164.578311-46.670742 48.935079-48.885442 62.364889-119.212738 41.806287-180.700214l-83.044664 82.999407c-29.385282 29.471417-77.870706 28.553127-108.466262-2.042429-30.465623-30.503581-31.429171-79.000684-2.094986-108.426844l83.009626-83.005247c-61.367763-20.684155-131.638122-7.16821-180.659337 41.807747-44.635613 44.596195-59.837766 107.166933-46.499932 164.537433L523.40928 392.041243 347.100506 215.73247c13.292577-57.317943-2.042429-119.895981-46.637164-164.571011C251.5779 2.224919 181.307541-11.244309 119.814225 9.308454l83.005247 83.044664c29.414481 29.380902 28.547288 77.923263-2.093526 108.472102-30.503581 30.510881-78.910169 31.423331-108.416625 2.093526L9.305534 119.862402c-20.609699 61.408641-7.128792 131.775355 41.886582 180.694375 44.545098 44.68087 107.127515 59.850906 164.538893 46.597746l176.307313 176.267895L174.737899 740.705324c-39.54341-2.737351-79.952553 10.390255-110.075095 40.673388-55.53976 55.452165-55.53976 145.409553 0 200.953693 55.368949 55.402527 145.370135 55.402527 200.81938 0 30.207217-30.201378 43.289566-70.661618 40.763903-110.205028l217.163192-217.250787 217.334002 217.328163c-2.692094 39.54925 10.47493 80.010949 40.677768 110.172909 55.406907 55.494502 145.450431 55.494502 200.902596 0 55.455085-55.453625 55.455085-145.409553 0-200.904056C952.117889 751.26347 911.656189 738.144623 872.111319 740.924312L872.111319 740.924312 872.111319 740.924312zM184.347096 954.036224l-72.27045-19.287011-19.253433-72.27191 52.802409-52.892924 72.266071 19.343948 19.349788 72.228113L184.347096 954.036224 184.347096 954.036224 184.347096 954.036224zM934.693736 934.868927l-72.231032 19.253433-52.884164-52.888544 19.294311-72.225193 72.27191-19.333729 52.933802 52.882705L934.693736 934.868927 934.693736 934.868927 934.693736 934.868927zM934.693736 934.868927" p-id="27714"></path></svg>