<?xml version="1.0" standalone="no"?><!DOCTYPE svg PUBLIC "-//W3C//DTD SVG 1.1//EN" "http://www.w3.org/Graphics/SVG/1.1/DTD/svg11.dtd"><svg t="1580485300737" class="icon" viewBox="0 0 1024 1024" version="1.1" xmlns="http://www.w3.org/2000/svg" p-id="23566" xmlns:xlink="http://www.w3.org/1999/xlink" width="100%" height="100%"><defs><style type="text/css"></style></defs><path d="M682.666667 170.666667H341.333333v42.666666a42.666667 42.666667 0 0 1-85.333333 0V170.666667H85.333333v170.666666h853.333334V170.666667H768v42.666666a42.666667 42.666667 0 0 1-85.333333 0V170.666667z m85.333333-85.333334h170.666667a85.333333 85.333333 0 0 1 85.333333 85.333334v768a85.333333 85.333333 0 0 1-85.333333 85.333333H85.333333a85.333333 85.333333 0 0 1-85.333333-85.333333V170.666667a85.333333 85.333333 0 0 1 85.333333-85.333334h170.666667V42.666667a42.666667 42.666667 0 0 1 85.333333 0V85.333333h341.333334V42.666667a42.666667 42.666667 0 0 1 85.333333 0V85.333333z m170.666667 341.333334H85.333333v512h853.333334V426.666667zM256 554.666667h85.333333v85.333333H256v-85.333333z m0 170.666666h85.333333v85.333334H256v-85.333334z m213.333333-170.666666h85.333334v85.333333h-85.333334v-85.333333z m0 170.666666h85.333334v85.333334h-85.333334v-85.333334z m213.333334-170.666666h85.333333v85.333333H682.666667v-85.333333z m0 170.666666h85.333333v85.333334H682.666667v-85.333334z" p-id="23567"  fill="#0062cc"></path></svg>